:SAMPLES-PER-SECOND 30
:FULLY-SPECIFIED
:DEGREES
34
root  -3.49242 38.4694 11.0498 178.525 62.1837 176.599
RightUpLeg  -21.9998 -7.19904 -3.19984
RightLeg  26.2678 -6.38047 -3.63902
RightFoot  -3.53267 -0.607748 8.53575
RightToes  -1.39699e-009 0 -3.6325e-017
Spine  11.0031 -0.666119 -12.502
Spine1  31.0852 -2.66838 0.466738
HEad  -38.057 49.632 -32.9201
LeftShoulder1  2.92842 -8.86263 -17.0144
LeftArm  5.86377 -19.2434 -60.7657
LeftForeArm  -11.8219 -71.4558 -39.9285
LeftHand  -0.864267 1.66809 26.7194
RightShoulder  0.629207 0.424161 8.62089
RightArm  -0.0809789 0.345225 65.8211
RightForeArm  65.5597 78.8934 88.0958
RightHand  -1.34171 3.7293 -17.221
LeftUpLeg  1.24297 -5.0358 7.15746
LeftLeg  17.0252 3.51812 2.6898
LeftFoot  -18.2497 -0.818448 -15.2864
LeftToes  3.40148e-010 1.80944e-010 1.01921e-010
35
root  -3.47887 38.4639 11.0052 178.438 62.8838 176.604
RightUpLeg  -21.9418 -7.16795 -3.15287
RightLeg  26.2096 -5.7782 -3.31136
RightFoot  -3.57372 -0.621638 8.78005
RightToes  -1.39699e-009 0 -3.6325e-017
Spine  10.9186 -0.816246 -12.2387
Spine1  31.1183 -2.64311 0.167497
HEad  -38.4473 50.2609 -33.4286
LeftShoulder1  2.90278 -8.84084 -16.834
LeftArm  5.41044 -19.7531 -61.2305
LeftForeArm  -13.5248 -70.7663 -38.1258
LeftHand  -0.903234 1.57785 27.2454
RightShoulder  0.64408 0.479782 8.78898
RightArm  -0.186747 0.0515469 64.4865
RightForeArm  52.8634 78.5449 76.8378
RightHand  -1.29123 3.48136 -17.0359
LeftUpLeg  1.25609 -5.67826 7.02541
LeftLeg  17.6828 4.66594 2.80977
LeftFoot  -18.1513 -0.822325 -15.5597
LeftToes  3.40148e-010 1.80944e-010 1.01921e-010
36
root  -3.46124 38.4747 10.9519 178.399 63.6674 176.89
RightUpLeg  -21.5508 -7.01944 -2.99831
RightLeg  25.9451 -5.23912 -2.99357
RightFoot  -3.50655 -0.640053 8.97909
RightToes  -1.39699e-009 0 -3.6325e-017
Spine  10.9679 -0.96864 -11.7915
Spine1  31.2289 -2.57946 -0.210027
HEad  -38.8569 50.8422 -34.0273
LeftShoulder1  2.83639 -8.79529 -16.3409
LeftArm  4.74924 -20.2965 -61.8248
LeftForeArm  -14.4551 -70.3711 -37.171
LeftHand  -0.963682 1.44003 28.0385
RightShoulder  0.653699 0.496308 8.98477
RightArm  -0.377878 -0.405413 62.9458
RightForeArm  43.3298 77.9404 67.7064
RightHand  -1.28114 3.48201 -16.9055
LeftUpLeg  1.50003 -5.99076 7.06889
LeftLeg  18.3384 5.50047 2.8552
LeftFoot  -17.9459 -0.81722 -15.931
LeftToes  3.40148e-010 1.80944e-010 1.01921e-010
37
root  -3.45133 38.4906 10.8935 178.306 64.5031 177.074
RightUpLeg  -21.1946 -7.01459 -2.88489
RightLeg  25.617 -4.58208 -2.6138
RightFoot  -3.39212 -0.659311 9.13671
RightToes  -1.39699e-009 0 -3.6325e-017
Spine  10.993 -1.15827 -11.4997
Spine1  31.3292 -2.63364 -0.454953
HEad  -39.3625 51.4509 -34.997
LeftShoulder1  2.76893 -8.62589 -16.0868
LeftArm  3.93348 -20.8665 -62.0553
LeftForeArm  -14.5077 -70.4153 -37.2942
LeftHand  -0.999697 1.35803 28.4826
RightShoulder  0.644015 0.455101 8.90073
RightArm  -0.707959 -0.936271 61.5451
RightForeArm  37.0608 77.2816 61.0377
RightHand  -1.25735 3.51296 -16.5437
LeftUpLeg  1.66262 -5.90663 7.10241
LeftLeg  19.0517 6.05553 2.8636
LeftFoot  -17.6703 -0.804721 -16.3656
LeftToes  3.40148e-010 1.80944e-010 1.01921e-010
38
root  -3.45174 38.5063 10.8298 178.113 65.4025 177.004
RightUpLeg  -21.0164 -7.14502 -2.86599
RightLeg  25.2977 -3.72869 -2.14312
RightFoot  -3.24384 -0.681461 9.29469
RightToes  -1.39699e-009 0 -3.6325e-017
Spine  11.0035 -1.38158 -11.4687
Spine1  31.2541 -2.8364 -0.525812
HEad  -40.0117 52.2712 -36.2562
LeftShoulder1  2.71004 -8.25889 -16.3188
LeftArm  3.15362 -21.4635 -61.7197
LeftForeArm  -13.8233 -70.7688 -38.1675
LeftHand  -0.991119 1.38792 28.4474
RightShoulder  0.616147 0.370067 8.49323
RightArm  -1.21438 -1.50699 60.1855
RightForeArm  32.7384 76.6814 56.4888
RightHand  -1.16774 3.26398 -15.8168
LeftUpLeg  1.65931 -5.47743 7.0258
LeftLeg  19.8045 6.37162 2.90853
LeftFoot  -17.3539 -0.781763 -16.752
LeftToes  3.40148e-010 1.80944e-010 1.01921e-010
